<svg version="1.1" xmlns="http://www.w3.org/2000/svg" viewBox="-5 -5 108.94 132.88">
  <g>
    <path fill="none" stroke="#FFFFFF" stroke-width="10" stroke-linejoin="round" d="M63.49,2.71c11.59-6.04,25.94-1.64,32.04,9.83c6.1,11.47,1.65,25.66-9.94,31.7l-9.53,5.01 c8.21,0.3,16.04,4.81,20.14,12.52c6.1,11.47,1.66,25.66-9.94,31.7l-50.82,26.7c-11.59,6.04-25.94,1.64-32.04-9.83 c-6.1-11.47-1.65-25.66,9.94-31.7l9.53-5.01c-8.21-0.3-16.04-4.81-20.14-12.52c-6.1-11.47-1.65-25.66,9.94-31.7L63.49,2.71z" />
    
    <path fill="#FFFFFF" d="M38.5,46.5l25,14.5l-25,14.5V46.5z" />
  </g>
</svg>